<mxfile host="app.diagrams.net" modified="2023-11-14T08:16:33.826Z" agent="Mozilla/5.0 (Windows NT 10.0; Win64; x64) AppleWebKit/537.36 (KHTML, like Gecko) Chrome/119.0.0.0 Safari/537.36 Edg/119.0.0.0" etag="8YJnXi_NKOHTAFv6RxMJ" version="22.1.0" type="github">
  <diagram name="第 1 页" id="MlkXA7hDsNdLh-0CrnH8">
    <mxGraphModel dx="550" dy="308" grid="1" gridSize="10" guides="1" tooltips="1" connect="1" arrows="1" fold="1" page="1" pageScale="1" pageWidth="827" pageHeight="1169" math="0" shadow="0">
      <root>
        <mxCell id="0" />
        <mxCell id="1" parent="0" />
        <mxCell id="5OwRYkwjaH5BJDgZWQ7X-4" style="edgeStyle=orthogonalEdgeStyle;rounded=0;orthogonalLoop=1;jettySize=auto;html=1;entryX=1;entryY=0.5;entryDx=0;entryDy=0;exitX=0.5;exitY=1;exitDx=0;exitDy=0;" edge="1" parent="1" source="5OwRYkwjaH5BJDgZWQ7X-2" target="5OwRYkwjaH5BJDgZWQ7X-3">
          <mxGeometry relative="1" as="geometry">
            <Array as="points">
              <mxPoint x="555" y="460" />
            </Array>
          </mxGeometry>
        </mxCell>
        <mxCell id="5OwRYkwjaH5BJDgZWQ7X-2" value="Robot" style="rounded=1;whiteSpace=wrap;html=1;" vertex="1" parent="1">
          <mxGeometry x="520" y="370" width="70" height="30" as="geometry" />
        </mxCell>
        <mxCell id="5OwRYkwjaH5BJDgZWQ7X-3" value="Estimate State" style="rounded=1;whiteSpace=wrap;html=1;" vertex="1" parent="1">
          <mxGeometry x="330" y="440" width="110" height="40" as="geometry" />
        </mxCell>
        <mxCell id="5OwRYkwjaH5BJDgZWQ7X-6" value="q,&amp;nbsp;" style="text;html=1;strokeColor=none;fillColor=none;align=center;verticalAlign=middle;whiteSpace=wrap;rounded=0;" vertex="1" parent="1">
          <mxGeometry x="460" y="440" width="60" height="30" as="geometry" />
        </mxCell>
      </root>
    </mxGraphModel>
  </diagram>
</mxfile>
